# Blender 3.5.0
# www.blender.org
mtllib hojaTamal.mtl
o Cylinder.004
v 0.047636 0.177217 -1.000000
v 0.047636 0.177217 1.000000
v 0.231070 0.173812 -1.000000
v 0.231070 0.173812 1.000000
v 0.407455 0.163728 -1.000000
v 0.407455 0.163727 1.000000
v 0.570013 0.147351 -1.000000
v 0.570013 0.147351 1.000000
v 0.712495 0.125312 -1.000000
v 0.712495 0.125312 1.000000
v 0.796533 0.094314 -0.957924
v 0.796533 0.094314 0.957924
v 0.845889 0.062320 -0.918926
v 0.845889 0.062320 0.918926
v 0.860847 0.030488 -0.881830
v 0.860847 0.030488 0.881830
v 0.867507 0.000000 -0.871968
v 0.867507 -0.000000 0.871968
v 0.860847 -0.030488 -0.881830
v 0.860847 -0.030488 0.881830
v 0.845889 -0.062320 -0.918926
v 0.845889 -0.062320 0.918926
v 0.796533 -0.094314 -0.957924
v 0.796533 -0.094314 0.957924
v 0.712495 -0.125312 -1.000000
v 0.712495 -0.125312 1.000000
v 0.570013 -0.147351 -1.000000
v 0.570013 -0.147351 1.000000
v 0.407455 -0.163727 -1.000000
v 0.407455 -0.163728 1.000000
v 0.231070 -0.173812 -1.000000
v 0.231070 -0.173812 1.000000
v 0.047636 -0.177217 -1.000000
v 0.047636 -0.177217 1.000000
v -0.135798 -0.173812 -1.000000
v -0.135798 -0.173812 1.000000
v -0.312183 -0.163727 -1.000000
v -0.312183 -0.163728 1.000000
v -0.474741 -0.147351 -1.000000
v -0.474741 -0.147351 1.000000
v -0.617223 -0.125312 -1.000000
v -0.617223 -0.125312 1.000000
v -0.701261 -0.094314 -0.957924
v -0.701261 -0.094314 0.957924
v -0.750617 -0.062320 -0.918926
v -0.750617 -0.062320 0.918926
v -0.765575 -0.030488 -0.881830
v -0.765575 -0.030488 0.881830
v -0.772235 0.000000 -0.871968
v -0.772235 -0.000000 0.871968
v -0.765575 0.030488 -0.881830
v -0.765575 0.030488 0.881830
v -0.750617 0.062320 -0.918926
v -0.750617 0.062320 0.918926
v -0.701261 0.094314 -0.957924
v -0.701261 0.094314 0.957924
v -0.617223 0.125312 -1.000000
v -0.617223 0.125312 1.000000
v -0.474741 0.147351 -1.000000
v -0.474741 0.147351 1.000000
v -0.312183 0.163728 -1.000000
v -0.312183 0.163727 1.000000
v -0.135798 0.173812 -1.000000
v -0.135798 0.173812 1.000000
vn 0.0186 0.9998 -0.0000
vn 0.0571 0.9984 -0.0000
vn 0.1002 0.9950 -0.0000
vn 0.1529 0.9882 -0.0000
vn 0.3461 0.9382 -0.0000
vn 0.5440 0.8391 -0.0000
vn 0.9051 0.4253 -0.0000
vn 0.9770 0.2134 -0.0000
vn 0.9770 -0.2134 -0.0000
vn 0.9051 -0.4253 -0.0000
vn 0.5440 -0.8391 -0.0000
vn 0.3461 -0.9382 -0.0000
vn 0.1529 -0.9882 -0.0000
vn 0.1002 -0.9950 -0.0000
vn 0.0571 -0.9984 -0.0000
vn 0.0186 -0.9998 -0.0000
vn -0.0186 -0.9998 -0.0000
vn -0.0571 -0.9984 -0.0000
vn -0.1002 -0.9950 -0.0000
vn -0.1529 -0.9882 -0.0000
vn -0.3461 -0.9382 -0.0000
vn -0.5440 -0.8391 -0.0000
vn -0.9051 -0.4253 -0.0000
vn -0.9770 -0.2134 -0.0000
vn -0.9770 0.2134 -0.0000
vn -0.9051 0.4253 -0.0000
vn -0.5440 0.8391 -0.0000
vn -0.3461 0.9382 -0.0000
vn -0.1529 0.9882 -0.0000
vn -0.1002 0.9950 -0.0000
vn -0.0000 -0.0000 1.0000
vn -0.0571 0.9984 -0.0000
vn -0.0186 0.9998 -0.0000
vn -0.0000 -0.0000 -1.0000
vt 0.604145 0.000000
vt 0.836849 0.686088
vt 0.836849 0.228083
vt 0.604145 0.558726
vt 0.555988 0.000000
vt 0.838751 0.634870
vt 0.555988 0.558726
vt 0.836849 0.279337
vt 0.510299 0.000000
vt 0.842482 0.585655
vt 0.510299 0.558726
vt 0.838751 0.328656
vt 0.468835 0.000000
vt 0.847899 0.540335
vt 0.468835 0.558726
vt 0.842482 0.374146
vt 0.433189 0.000000
vt 1.000000 0.000000
vt 0.854794 0.500652
vt 0.433189 0.558726
vt 1.000000 0.558726
vt 0.847899 0.414058
vt 0.980391 0.011754
vt 0.863888 0.477340
vt 0.980391 0.546972
vt 0.856122 0.437692
vt 0.965584 0.022649
vt 0.873080 0.463720
vt 0.965584 0.536077
vt 0.864802 0.451643
vt 0.955816 0.033012
vt 0.882049 0.459707
vt 0.955816 0.525714
vt 0.873616 0.455986
vt 0.947574 0.035767
vt 0.890599 0.458005
vt 0.947574 0.522959
vt 0.882097 0.458005
vt 0.941268 0.033012
vt 0.899080 0.460023
vt 0.941268 0.525714
vt 0.890647 0.456303
vt 0.935848 0.022649
vt 0.000000 0.536077
vt 0.907894 0.464366
vt 0.935848 0.536077
vt 0.000000 0.022649
vt 0.899616 0.452289
vt 0.010137 0.546972
vt 0.916575 0.478318
vt 0.010137 0.011754
vt 0.908808 0.438670
vt 0.029529 0.558726
vt 0.924797 0.501951
vt 0.029529 0.000000
vt 0.917902 0.415357
vt 0.065175 0.558726
vt 0.930214 0.541863
vt 0.065175 0.000000
vt 0.924797 0.375674
vt 0.106639 0.558726
vt 0.933945 0.587353
vt 0.106639 0.000000
vt 0.930214 0.330354
vt 0.152328 0.558726
vt 0.935848 0.636672
vt 0.152328 0.000000
vt 0.933945 0.281139
vt 0.200485 0.558726
vt 0.935848 0.687926
vt 0.200485 0.000000
vt 0.935848 0.229921
vt 0.249260 0.558726
vt 0.933945 0.739144
vt 0.249260 0.000000
vt 0.935848 0.178668
vt 0.296779 0.558726
vt 0.930214 0.788359
vt 0.296779 0.000000
vt 0.933945 0.129348
vt 0.341215 0.558726
vt 0.924797 0.833679
vt 0.341215 0.000000
vt 0.930214 0.083859
vt 0.380861 0.558726
vt 0.917902 0.873362
vt 0.380861 0.000000
vt 0.924797 0.043947
vt 0.405878 0.546972
vt 0.908808 0.896674
vt 0.405878 0.011754
vt 0.916575 0.020313
vt 0.421822 0.536077
vt 0.899616 0.910294
vt 0.421822 0.022649
vt 0.907894 0.006361
vt 0.428663 0.525714
vt 0.890647 0.914307
vt 0.428663 0.033012
vt 0.899080 0.002018
vt 0.433189 0.522959
vt 0.836849 0.035767
vt 0.882097 0.916009
vt 0.433189 0.035767
vt 0.836849 0.522959
vt 0.890599 0.000000
vt 0.832322 0.033012
vt 0.873616 0.913991
vt 0.832322 0.525714
vt 0.882049 0.001702
vt 0.825482 0.022649
vt 0.864802 0.909648
vt 0.825482 0.536077
vt 0.873080 0.005715
vt 0.809538 0.011754
vt 0.856122 0.895696
vt 0.809538 0.546972
vt 0.863888 0.019335
vt 0.784521 0.000000
vt 0.847899 0.872062
vt 0.784521 0.558726
vt 0.854794 0.042647
vt 0.744875 0.000000
vt 0.842482 0.832151
vt 0.744875 0.558726
vt 0.847899 0.082331
vt 0.700439 0.000000
vt 0.838751 0.786661
vt 0.842482 0.127650
vt 0.700439 0.558726
vt 0.652920 0.000000
vt 0.836849 0.737342
vt 0.838751 0.176865
vt 0.652920 0.558726
s 0
usemtl Material.013
f 1/1/1 2/4/1 4/7/1 3/5/1
f 3/5/2 4/7/2 6/11/2 5/9/2
f 5/9/3 6/11/3 8/15/3 7/13/3
f 7/13/4 8/15/4 10/20/4 9/17/4
f 9/18/5 10/21/5 12/25/5 11/23/5
f 11/23/6 12/25/6 14/29/6 13/27/6
f 13/27/7 14/29/7 16/33/7 15/31/7
f 15/31/8 16/33/8 18/37/8 17/35/8
f 17/35/9 18/37/9 20/41/9 19/39/9
f 19/39/10 20/41/10 22/46/10 21/43/10
f 21/44/11 22/47/11 24/51/11 23/49/11
f 23/49/12 24/51/12 26/55/12 25/53/12
f 25/53/13 26/55/13 28/59/13 27/57/13
f 27/57/14 28/59/14 30/63/14 29/61/14
f 29/61/15 30/63/15 32/67/15 31/65/15
f 31/65/16 32/67/16 34/71/16 33/69/16
f 33/69/17 34/71/17 36/75/17 35/73/17
f 35/73/18 36/75/18 38/79/18 37/77/18
f 37/77/19 38/79/19 40/83/19 39/81/19
f 39/81/20 40/83/20 42/87/20 41/85/20
f 41/85/21 42/87/21 44/91/21 43/89/21
f 43/89/22 44/91/22 46/95/22 45/93/22
f 45/93/23 46/95/23 48/99/23 47/97/23
f 47/97/24 48/99/24 50/104/24 49/101/24
f 49/102/25 50/105/25 52/109/25 51/107/25
f 51/107/26 52/109/26 54/113/26 53/111/26
f 53/111/27 54/113/27 56/117/27 55/115/27
f 55/115/28 56/117/28 58/121/28 57/119/28
f 57/119/29 58/121/29 60/125/29 59/123/29
f 59/123/30 60/125/30 62/130/30 61/127/30
f 4/8/31 2/3/31 64/133/31 62/129/31 60/126/31 58/122/31 56/118/31 54/114/31 52/110/31 50/106/31 48/100/31 46/96/31 44/92/31 42/88/31 40/84/31 38/80/31 36/76/31 34/72/31 32/68/31 30/64/31 28/60/31 26/56/31 24/52/31 22/48/31 20/42/31 18/38/31 16/34/31 14/30/31 12/26/31 10/22/31 8/16/31 6/12/31
f 61/127/32 62/130/32 64/134/32 63/131/32
f 63/131/33 64/134/33 2/4/33 1/1/33
f 1/2/34 3/6/34 5/10/34 7/14/34 9/19/34 11/24/34 13/28/34 15/32/34 17/36/34 19/40/34 21/45/34 23/50/34 25/54/34 27/58/34 29/62/34 31/66/34 33/70/34 35/74/34 37/78/34 39/82/34 41/86/34 43/90/34 45/94/34 47/98/34 49/103/34 51/108/34 53/112/34 55/116/34 57/120/34 59/124/34 61/128/34 63/132/34
