# Blender 3.5.0
# www.blender.org
mtllib tortilla.mtl
o Cylinder
v 0.000000 -0.015893 -1.000000
v 0.000000 0.015893 -1.000000
v 0.195090 -0.015893 -0.980785
v 0.195090 0.015893 -0.980785
v 0.382683 -0.015893 -0.923880
v 0.382683 0.015893 -0.923880
v 0.555570 -0.015893 -0.831470
v 0.555570 0.015893 -0.831470
v 0.707107 -0.015893 -0.707107
v 0.707107 0.015893 -0.707107
v 0.831470 -0.015893 -0.555570
v 0.831470 0.015893 -0.555570
v 0.923880 -0.015893 -0.382683
v 0.923880 0.015893 -0.382683
v 0.980785 -0.015893 -0.195090
v 0.980785 0.015893 -0.195090
v 1.000000 -0.015893 0.000000
v 1.000000 0.015893 0.000000
v 0.980785 -0.015893 0.195090
v 0.980785 0.015893 0.195090
v 0.923880 -0.015893 0.382683
v 0.923880 0.015893 0.382683
v 0.831470 -0.015893 0.555570
v 0.831470 0.015893 0.555570
v 0.707107 -0.015893 0.707107
v 0.707107 0.015893 0.707107
v 0.555570 -0.015893 0.831470
v 0.555570 0.015893 0.831470
v 0.382683 -0.015893 0.923880
v 0.382683 0.015893 0.923880
v 0.195090 -0.015893 0.980785
v 0.195090 0.015893 0.980785
v 0.000000 -0.015893 1.000000
v 0.000000 0.015893 1.000000
v -0.195090 -0.015893 0.980785
v -0.195090 0.015893 0.980785
v -0.382683 -0.015893 0.923880
v -0.382683 0.015893 0.923880
v -0.555570 -0.015893 0.831470
v -0.555570 0.015893 0.831470
v -0.707107 -0.015893 0.707107
v -0.707107 0.015893 0.707107
v -0.831470 -0.015893 0.555570
v -0.831470 0.015893 0.555570
v -0.923880 -0.015893 0.382683
v -0.923880 0.015893 0.382683
v -0.980785 -0.015893 0.195090
v -0.980785 0.015893 0.195090
v -1.000000 -0.015893 0.000000
v -1.000000 0.015893 0.000000
v -0.980785 -0.015893 -0.195090
v -0.980785 0.015893 -0.195090
v -0.923880 -0.015893 -0.382683
v -0.923880 0.015893 -0.382683
v -0.831470 -0.015893 -0.555570
v -0.831470 0.015893 -0.555570
v -0.707107 -0.015893 -0.707107
v -0.707107 0.015893 -0.707107
v -0.556163 -0.015631 -0.833221
v -0.555570 0.015893 -0.831470
v -0.393216 -0.011590 -0.949415
v -0.378403 0.010595 -0.913545
v -0.195090 -0.015893 -0.980785
v -0.195090 0.015893 -0.980785
v -0.000000 0.000000 -1.004871
v 0.196041 0.000000 -0.985562
v 0.384547 0.000000 -0.928379
v 0.558276 0.000000 -0.835519
v 0.710551 0.000000 -0.710551
v 0.835519 0.000000 -0.558276
v 0.928379 0.000000 -0.384547
v 0.985562 0.000000 -0.196041
v 1.004871 0.000000 0.000000
v 0.985562 0.000000 0.196041
v 0.928379 0.000000 0.384547
v 0.835519 0.000000 0.558276
v 0.710551 0.000000 0.710551
v 0.558276 0.000000 0.835519
v 0.384547 0.000000 0.928379
v 0.196041 0.000000 0.985562
v -0.000000 0.000000 1.004871
v -0.196041 0.000000 0.985562
v -0.384547 0.000000 0.928379
v -0.558276 0.000000 0.835519
v -0.710551 0.000000 0.710551
v -0.835519 0.000000 0.558276
v -0.928379 0.000000 0.384547
v -0.985562 0.000000 0.196041
v -1.004871 0.000000 0.000000
v -0.985562 0.000000 -0.196041
v -0.928379 0.000000 -0.384547
v -0.835519 0.000000 -0.558276
v -0.710551 0.000000 -0.710551
v -0.558276 0.000000 -0.835519
v -0.379557 -0.001324 -0.916331
v -0.196041 0.000000 -0.985562
vn 0.0938 0.2917 -0.9519
vn 0.2777 0.2917 -0.9153
vn 0.4509 0.2917 -0.8436
vn 0.6068 0.2917 -0.7394
vn 0.7394 0.2917 -0.6068
vn 0.8436 0.2917 -0.4509
vn 0.9153 0.2917 -0.2777
vn 0.9519 0.2917 -0.0938
vn 0.9519 0.2917 0.0938
vn 0.9153 0.2917 0.2777
vn 0.8436 0.2917 0.4509
vn 0.7394 0.2917 0.6068
vn 0.6068 0.2917 0.7394
vn 0.4509 0.2917 0.8436
vn 0.2777 0.2917 0.9153
vn 0.0938 0.2917 0.9519
vn -0.0938 0.2917 0.9519
vn -0.2777 0.2917 0.9153
vn -0.4509 0.2917 0.8436
vn -0.6068 0.2917 0.7394
vn -0.7394 0.2917 0.6068
vn -0.8436 0.2917 0.4509
vn -0.9153 0.2917 0.2777
vn -0.9519 0.2917 0.0938
vn -0.9519 0.2917 -0.0938
vn -0.9153 0.2917 -0.2777
vn -0.8436 0.2917 -0.4509
vn -0.7394 0.2917 -0.6068
vn -0.6068 0.2917 -0.7394
vn -0.3965 0.2706 -0.8772
vn -0.0001 1.0000 -0.0003
vn -0.3400 0.2706 -0.9007
vn -0.0938 0.2917 -0.9519
vn -0.0001 -1.0000 -0.0003
vn -0.0938 -0.2917 -0.9519
vn -0.1602 0.7598 -0.6302
vn -0.3166 0.7811 -0.5383
vn -0.6182 -0.2450 -0.7468
vn -0.7394 -0.2917 -0.6068
vn -0.8436 -0.2917 -0.4509
vn -0.9153 -0.2917 -0.2777
vn -0.9519 -0.2917 -0.0938
vn -0.9519 -0.2917 0.0938
vn -0.9153 -0.2917 0.2777
vn -0.8436 -0.2917 0.4509
vn -0.7394 -0.2917 0.6068
vn -0.6068 -0.2917 0.7394
vn -0.4509 -0.2917 0.8436
vn -0.2777 -0.2917 0.9153
vn -0.0938 -0.2917 0.9519
vn 0.0938 -0.2917 0.9519
vn 0.2777 -0.2917 0.9153
vn 0.4509 -0.2917 0.8436
vn 0.6068 -0.2917 0.7394
vn 0.7394 -0.2917 0.6068
vn 0.8436 -0.2917 0.4509
vn 0.9153 -0.2917 0.2777
vn 0.9519 -0.2917 0.0938
vn 0.9519 -0.2917 -0.0938
vn 0.9153 -0.2917 -0.2777
vn 0.8436 -0.2917 -0.4509
vn 0.7394 -0.2917 -0.6068
vn 0.6068 -0.2917 -0.7394
vn 0.4509 -0.2917 -0.8436
vn 0.2777 -0.2917 -0.9153
vn 0.0938 -0.2917 -0.9519
vt 0.332214 0.182508
vt 0.358086 0.332369
vt 0.338597 0.214597
vt 0.358086 0.666236
vt 0.325830 0.214603
vt 0.804906 0.332263
vt 0.332789 0.332457
vt 0.332789 0.666324
vt 0.804906 0.666133
vt 0.351117 0.244830
vt 0.313309 0.244835
vt 0.781766 0.332263
vt 0.781766 0.666133
vt 0.369294 0.272039
vt 0.295130 0.272043
vt 0.754556 0.332263
vt 0.754556 0.666133
vt 0.392429 0.295178
vt 0.271994 0.295180
vt 0.724322 0.332263
vt 0.724322 0.666133
vt 0.419633 0.313358
vt 0.244788 0.313359
vt 0.692226 0.332263
vt 0.692226 0.666133
vt 0.449861 0.325880
vt 0.214558 0.325879
vt 0.659501 0.332263
vt 0.659501 0.666133
vt 0.481950 0.332263
vt 0.182467 0.332260
vt 0.627405 0.332263
vt 0.627405 0.666133
vt 0.514668 0.332261
vt 0.149747 0.332257
vt 0.597171 0.332263
vt 0.597171 0.666133
vt 0.546757 0.325876
vt 0.117655 0.325870
vt 0.258713 0.332260
vt 0.569961 0.332263
vt 0.569961 0.666133
vt 0.258713 0.666130
vt 0.576985 0.313351
vt 0.087426 0.313344
vt 0.235573 0.332260
vt 0.235573 0.666130
vt 0.604189 0.295169
vt 0.060220 0.295161
vt 0.208364 0.332260
vt 0.208363 0.666130
vt 0.627324 0.272028
vt 0.037083 0.272019
vt 0.178130 0.332260
vt 0.178130 0.666130
vt 0.645501 0.244818
vt 0.018905 0.244808
vt 0.146033 0.332260
vt 0.146033 0.666130
vt 0.658021 0.214583
vt 0.006383 0.214573
vt 0.113308 0.332260
vt 0.113308 0.666130
vt 0.664404 0.182487
vt 0.000000 0.182477
vt 0.081212 0.332260
vt 0.081212 0.666130
vt 0.664404 0.149762
vt 0.000000 0.149753
vt 0.050978 0.332260
vt 0.050978 0.666130
vt 0.658021 0.117666
vt 0.006383 0.117658
vt 0.023769 0.332260
vt 0.023769 0.666130
vt 0.645501 0.087433
vt 0.018905 0.087425
vt 0.212321 0.666130
vt 0.000629 0.332260
vt 0.000628 0.666130
vt 0.212321 1.000000
vt 0.627324 0.060224
vt 0.037083 0.060217
vt 0.185111 0.666130
vt 0.185111 1.000000
vt 0.604189 0.037085
vt 0.060220 0.037080
vt 0.154877 0.666130
vt 0.154877 1.000000
vt 0.576985 0.018905
vt 0.087426 0.018902
vt 0.122781 0.666130
vt 0.122781 1.000000
vt 0.546757 0.006383
vt 0.117655 0.006381
vt 0.090056 0.666130
vt 0.090056 1.000000
vt 0.514668 0.000000
vt 0.149747 0.000000
vt 0.057960 0.666130
vt 0.057960 1.000000
vt 0.481950 0.000001
vt 0.182467 0.000003
vt 0.027726 0.666130
vt 0.027726 1.000000
vt 0.449861 0.006387
vt 0.214559 0.006390
vt 0.568870 0.332457
vt 0.000516 0.666130
vt 0.000516 1.000000
vt 0.568870 0.666324
vt 0.419633 0.018912
vt 0.244788 0.018916
vt 0.543574 0.332369
vt 0.543574 0.666236
vt 0.392430 0.037094
vt 0.271994 0.037099
vt 0.514713 0.332303
vt 0.514713 0.666170
vt 0.369294 0.060235
vt 0.295131 0.060241
vt 0.483397 0.332263
vt 0.483397 0.666130
vt 0.351117 0.087445
vt 0.313656 0.087368
vt 0.450750 0.334995
vt 0.450830 0.666116
vt 0.338597 0.117680
vt 0.331016 0.116112
vt 0.417356 0.377444
vt 0.332918 0.149845
vt 0.418627 0.610493
vt 0.332214 0.149783
vt 0.386947 0.332303
vt 0.332214 0.182501
vt 0.386946 0.666170
vt 0.357634 0.499299
vt 0.805534 0.499198
vt 0.332214 0.499388
vt 0.782282 0.499198
vt 0.754939 0.499198
vt 0.724558 0.499198
vt 0.692306 0.499198
vt 0.659421 0.499198
vt 0.627169 0.499198
vt 0.596788 0.499198
vt 0.259342 0.499195
vt 0.569445 0.499198
vt 0.236089 0.499195
vt 0.208747 0.499195
vt 0.178366 0.499195
vt 0.146113 0.499195
vt 0.113229 0.499195
vt 0.080976 0.499195
vt 0.050595 0.499195
vt 0.023253 0.499195
vt 0.212836 0.833065
vt 0.000000 0.499195
vt 0.185494 0.833065
vt 0.155113 0.833065
vt 0.122860 0.833065
vt 0.089976 0.833065
vt 0.057724 0.833065
vt 0.027342 0.833065
vt 0.569445 0.499388
vt 0.000000 0.833065
vt 0.544025 0.499299
vt 0.515024 0.499233
vt 0.483556 0.499193
vt 0.450830 0.499179
vt 0.418529 0.485291
vt 0.386635 0.499233
s 0
usemtl Material.001
f 65/137/1 2/4/1 4/8/1 66/139/1
f 66/138/2 4/9/2 6/13/2 67/140/2
f 67/140/3 6/13/3 8/17/3 68/141/3
f 68/141/4 8/17/4 10/21/4 69/142/4
f 69/142/5 10/21/5 12/25/5 70/143/5
f 70/143/6 12/25/6 14/29/6 71/144/6
f 71/144/7 14/29/7 16/33/7 72/145/7
f 72/145/8 16/33/8 18/37/8 73/146/8
f 73/146/9 18/37/9 20/42/9 74/148/9
f 74/147/10 20/43/10 22/47/10 75/149/10
f 75/149/11 22/47/11 24/51/11 76/150/11
f 76/150/12 24/51/12 26/55/12 77/151/12
f 77/151/13 26/55/13 28/59/13 78/152/13
f 78/152/14 28/59/14 30/63/14 79/153/14
f 79/153/15 30/63/15 32/67/15 80/154/15
f 80/154/16 32/67/16 34/71/16 81/155/16
f 81/155/17 34/71/17 36/75/17 82/156/17
f 82/156/18 36/75/18 38/80/18 83/158/18
f 83/157/19 38/81/19 40/85/19 84/159/19
f 84/159/20 40/85/20 42/89/20 85/160/20
f 85/160/21 42/89/21 44/93/21 86/161/21
f 86/161/22 44/93/22 46/97/22 87/162/22
f 87/162/23 46/97/23 48/101/23 88/163/23
f 88/163/24 48/101/24 50/105/24 89/164/24
f 89/164/25 50/105/25 52/110/25 90/166/25
f 90/165/26 52/111/26 54/115/26 91/167/26
f 91/167/27 54/115/27 56/119/27 92/168/27
f 92/168/28 56/119/28 58/123/28 93/169/28
f 93/169/29 58/123/29 60/127/29 94/170/29
f 94/170/30 60/127/30 62/132/30 95/171/30
f 4/10/31 2/3/31 64/135/31 62/131/31 60/128/31 58/124/31 56/120/31 54/116/31 52/112/31 50/106/31 48/102/31 46/98/31 44/94/31 42/90/31 40/86/31 38/82/31 36/76/31 34/72/31 32/68/31 30/64/31 28/60/31 26/56/31 24/52/31 22/48/31 20/44/31 18/38/31 16/34/31 14/30/31 12/26/31 10/22/31 8/18/31 6/14/31
f 95/171/32 62/132/32 64/136/32 96/172/32
f 96/172/33 64/136/33 2/4/33 65/137/33
f 1/1/34 3/5/34 5/11/34 7/15/34 9/19/34 11/23/34 13/27/34 15/31/34 17/35/34 19/39/34 21/45/34 23/49/34 25/53/34 27/57/34 29/61/34 31/65/34 33/69/34 35/73/34 37/77/34 39/83/34 41/87/34 43/91/34 45/95/34 47/99/34 49/103/34 51/107/34 53/113/34 55/117/34 57/121/34 59/125/34 61/129/34 63/133/34
f 63/134/35 96/172/35 65/137/35 1/2/35
f 61/130/36 95/171/36 96/172/36 63/134/36
f 59/126/37 94/170/37 95/171/37 61/130/37
f 57/122/38 93/169/38 94/170/38 59/126/38
f 55/118/39 92/168/39 93/169/39 57/122/39
f 53/114/40 91/167/40 92/168/40 55/118/40
f 51/108/41 90/165/41 91/167/41 53/114/41
f 49/104/42 89/164/42 90/166/42 51/109/42
f 47/100/43 88/163/43 89/164/43 49/104/43
f 45/96/44 87/162/44 88/163/44 47/100/44
f 43/92/45 86/161/45 87/162/45 45/96/45
f 41/88/46 85/160/46 86/161/46 43/92/46
f 39/84/47 84/159/47 85/160/47 41/88/47
f 37/78/48 83/157/48 84/159/48 39/84/48
f 35/74/49 82/156/49 83/158/49 37/79/49
f 33/70/50 81/155/50 82/156/50 35/74/50
f 31/66/51 80/154/51 81/155/51 33/70/51
f 29/62/52 79/153/52 80/154/52 31/66/52
f 27/58/53 78/152/53 79/153/53 29/62/53
f 25/54/54 77/151/54 78/152/54 27/58/54
f 23/50/55 76/150/55 77/151/55 25/54/55
f 21/46/56 75/149/56 76/150/56 23/50/56
f 19/40/57 74/147/57 75/149/57 21/46/57
f 17/36/58 73/146/58 74/148/58 19/41/58
f 15/32/59 72/145/59 73/146/59 17/36/59
f 13/28/60 71/144/60 72/145/60 15/32/60
f 11/24/61 70/143/61 71/144/61 13/28/61
f 9/20/62 69/142/62 70/143/62 11/24/62
f 7/16/63 68/141/63 69/142/63 9/20/63
f 5/12/64 67/140/64 68/141/64 7/16/64
f 3/6/65 66/138/65 67/140/65 5/12/65
f 1/2/66 65/137/66 66/139/66 3/7/66
