# Blender 3.5.0
# www.blender.org
mtllib foodtruckinside_choppingtable.mtl
o Cube.003
v -9.287333 2.940750 -15.550112
v -9.287333 2.665527 -15.550112
v 9.129633 2.940751 -15.550113
v 9.129633 2.665528 -15.550113
v -9.287333 2.940750 -12.433509
v -9.287333 2.665527 -12.433509
v 9.129633 2.940751 -12.433510
v 9.129633 2.665528 -12.433510
v -8.716559 2.665527 -12.433509
v -8.716559 2.940750 -15.550112
v -8.716559 2.940750 -12.433509
v -8.716559 2.665527 -15.550112
v -8.111605 2.665527 -12.433509
v -8.111605 2.940750 -15.550112
v -8.111605 2.940750 -12.433509
v -8.111605 2.665527 -15.550112
v 8.559988 2.665528 -12.433510
v 8.559988 2.940751 -15.550113
v 8.559988 2.940751 -12.433510
v 8.559988 2.665528 -15.550113
v 7.950979 2.940751 -12.433510
v 7.950979 2.665528 -15.550113
v 7.950979 2.665528 -12.433510
v 7.950979 2.940751 -15.550113
v -9.287333 2.665527 -12.748879
v 9.129633 2.940751 -12.748880
v 9.129633 2.665528 -12.748880
v -9.287333 2.940750 -12.748879
v -8.716559 2.665527 -12.748879
v -8.716559 2.940750 -12.748879
v -8.111605 2.665527 -12.748879
v -8.111605 2.940750 -12.748879
v 8.559988 2.665528 -12.748880
v 8.559988 2.940751 -12.748880
v 7.950979 2.940751 -12.748880
v 7.950979 2.665528 -12.748880
v 9.129633 2.665528 -13.062175
v -9.287333 2.940750 -13.062174
v -8.716559 2.940750 -13.062174
v -8.111605 2.940750 -13.062174
v 8.559988 2.940751 -13.062175
v 7.950979 2.940751 -13.062175
v -9.287333 2.665527 -13.062174
v 9.129633 2.940751 -13.062175
v -8.716559 2.665527 -13.062174
v -8.111605 2.665527 -13.062174
v 8.559988 2.665528 -13.062175
v 7.950979 2.665528 -13.062175
v 9.129633 2.665528 -15.234479
v -9.287333 2.940750 -15.234478
v -8.716559 2.940750 -15.234478
v -8.111605 2.940750 -15.234478
v 8.559988 2.940751 -15.234479
v 7.950979 2.940751 -15.234479
v -9.287333 2.665527 -15.234478
v 9.129633 2.940751 -15.234479
v -8.716559 2.665527 -15.234478
v -8.111605 2.665527 -15.234478
v 8.559988 2.665528 -15.234479
v 7.950979 2.665528 -15.234479
v -9.287333 2.665527 -14.934850
v 9.129633 2.940751 -14.934851
v -8.716559 2.665527 -14.934850
v -8.111605 2.665527 -14.934850
v 8.559988 2.665528 -14.934851
v 7.950979 2.665528 -14.934851
v 9.129633 2.665528 -14.934851
v -9.287333 2.940750 -14.934850
v -8.716559 2.940750 -14.934850
v -8.111605 2.940750 -14.934850
v 8.559988 2.940751 -14.934851
v 7.950979 2.940751 -14.934851
v -8.716559 0.283372 -13.062174
v -8.716559 0.283372 -12.748879
v -8.111605 0.283372 -13.062174
v -8.111605 0.283372 -12.748879
v 8.559988 0.283374 -13.062175
v 8.559988 0.283374 -12.748880
v 7.950979 0.283374 -13.062175
v 7.950979 0.283374 -12.748880
v 7.950979 0.283374 -15.234479
v 8.559988 0.283374 -15.234479
v -8.716559 0.283372 -15.234478
v -8.111605 0.283372 -15.234478
v -8.716559 0.283372 -14.934850
v -8.111605 0.283372 -14.934850
v 8.559988 0.283374 -14.934851
v 7.950979 0.283374 -14.934851
vn -0.0000 1.0000 -0.0000
vn 1.0000 -0.0000 -0.0000
vn -0.0000 -0.0000 1.0000
vn -0.0000 -1.0000 -0.0000
vn -0.0000 -0.0000 -1.0000
vn -1.0000 -0.0000 -0.0000
vt 0.346608 0.115536
vt 0.115536 0.115536
vt 0.231072 0.115536
vt 0.115536 0.000000
vt 0.115536 0.115536
vt 0.000000 0.115536
vt 0.115536 0.231072
vt 0.115536 0.231072
vt 0.000000 0.000000
vt 0.000000 0.231072
vt 0.115536 0.115536
vt 0.231072 0.115536
vt 0.346608 0.000000
vt 0.115536 0.000000
vt 0.000000 0.115536
vt 0.231072 0.000000
vt 0.231072 0.231072
vt 0.115536 0.346608
vt 0.231072 0.115536
vt 0.000000 0.346608
vt 0.231072 0.000000
vt 0.000000 0.231072
vt 0.119117 0.000000
vt 0.000000 0.119117
vt 0.111955 0.115536
vt 0.115536 0.119117
vt 0.119117 0.115536
vt 0.231072 0.119117
vt 0.111955 0.000000
vt 0.115536 0.119117
vt 0.122912 0.000000
vt 0.000000 0.122912
vt 0.108160 0.115536
vt 0.115536 0.122912
vt 0.122912 0.115536
vt 0.231072 0.122912
vt 0.115536 0.122912
vt 0.108160 0.000000
vt 0.227499 0.000000
vt 0.000000 0.227499
vt 0.003574 0.115536
vt 0.115536 0.227499
vt 0.231072 0.227499
vt 0.227499 0.115536
vt 0.003574 0.000000
vt 0.115536 0.227499
vt 0.231072 0.223678
vt 0.223678 0.115536
vt 0.115536 0.223678
vt 0.007394 0.000000
vt 0.223678 0.000000
vt 0.000000 0.223678
vt 0.007394 0.115536
vt 0.115536 0.223678
vt 0.011691 0.115536
vt 0.231072 0.011691
vt 0.115536 0.334917
vt 0.219381 0.231072
vt 0.000000 0.334917
vt 0.011691 0.231072
vt 0.219381 0.115536
vt 0.346608 0.011691
vt 0.011691 0.119117
vt 0.464164 1.000000
vt 0.393065 1.000000
vt 0.219381 0.119117
vt 0.011691 0.122912
vt 0.358223 1.000000
vt 0.467959 1.000000
vt 0.219381 0.122912
vt 0.011691 0.227499
vt 0.448958 1.000000
vt 0.369837 1.000000
vt 0.219381 0.227499
vt 0.219381 0.223678
vt 0.011691 0.223678
vt 0.445137 1.000000
vt 0.358222 1.000000
vt 0.000000 0.323303
vt 0.023305 0.231072
vt 0.207767 0.115536
vt 0.346608 0.023305
vt 0.207767 0.119117
vt 0.207767 0.122912
vt 0.207767 0.227499
vt 0.207767 0.223678
vt 0.231072 0.023305
vt 0.023305 0.115536
vt 0.207767 0.231072
vt 0.115536 0.323303
vt 0.023305 0.119117
vt 0.456574 1.000000
vt 0.381451 1.000000
vt 0.369837 1.000000
vt 0.023305 0.122912
vt 0.452779 1.000000
vt 0.441317 1.000000
vt 0.023305 0.227499
vt 0.381451 1.000000
vt 0.445137 1.000000
vt 0.023305 0.223678
vt 0.346608 1.000000
vt 0.103835 0.231072
vt 0.000000 0.242773
vt 0.346608 0.103835
vt 0.127237 0.115536
vt 0.127237 0.119117
vt 0.127237 0.122912
vt 0.127237 0.227499
vt 0.127237 0.223678
vt 0.103835 0.115536
vt 0.231072 0.103835
vt 0.115536 0.242773
vt 0.127237 0.231072
vt 0.103835 0.119117
vt 0.426389 1.000000
vt 0.460369 1.000000
vt 0.103835 0.122912
vt 0.404173 1.000000
vt 0.456574 1.000000
vt 0.103835 0.227499
vt 0.448958 1.000000
vt 0.426388 1.000000
vt 0.103835 0.223678
vt 0.452778 1.000000
vt 0.404173 1.000000
vt 0.231072 0.092728
vt 0.092728 0.115536
vt 0.115536 0.253881
vt 0.138345 0.231072
vt 0.460369 1.000000
vt 0.092728 0.119117
vt 0.437496 1.000000
vt 0.464164 1.000000
vt 0.092728 0.122912
vt 0.393066 1.000000
vt 0.441317 1.000000
vt 0.092728 0.227499
vt 0.415281 1.000000
vt 0.437496 1.000000
vt 0.092728 0.223678
vt 0.415281 1.000000
vt 0.092728 0.231072
vt 0.000000 0.253881
vt 0.346608 0.092728
vt 0.138345 0.115536
vt 0.138345 0.119117
vt 0.138345 0.122912
vt 0.138345 0.227499
vt 0.138345 0.223678
vt 0.234867 0.138765
vt 0.456574 0.000000
vt 0.381451 0.000000
vt 0.234867 0.127150
vt 0.464164 0.000000
vt 0.393066 0.000000
vt 0.369837 0.000000
vt 0.231072 0.138765
vt 0.452779 0.000000
vt 0.358223 0.000000
vt 0.231072 0.127150
vt 0.467959 0.000000
vt 0.441317 0.000000
vt 0.231072 0.127150
vt 0.381451 0.000000
vt 0.231072 0.115536
vt 0.448958 0.000000
vt 0.369837 0.000000
vt 0.445137 0.000000
vt 0.234893 0.127150
vt 0.346608 0.000000
vt 0.234893 0.115536
vt 0.445137 0.000000
vt 0.358223 0.000000
vt 0.234893 0.149872
vt 0.452779 0.000000
vt 0.404173 0.000000
vt 0.231072 0.149872
vt 0.448958 0.000000
vt 0.426389 0.000000
vt 0.234867 0.160980
vt 0.426389 0.000000
vt 0.460369 0.000000
vt 0.231072 0.160980
vt 0.404173 0.000000
vt 0.456574 0.000000
vt 0.460369 0.000000
vt 0.234867 0.149872
vt 0.437496 0.000000
vt 0.464164 0.000000
vt 0.231072 0.149872
vt 0.393066 0.000000
vt 0.441317 0.000000
vt 0.231072 0.138765
vt 0.415281 0.000000
vt 0.437496 0.000000
vt 0.234893 0.138765
vt 0.415281 0.000000
s 0
usemtl Material.008
f 34/74/1 19/43/1 7/17/1 26/58/1
f 27/59/2 26/57/2 7/18/2 8/20/2
f 9/23/3 11/27/3 5/11/3 6/14/3
f 59/121/4 20/46/4 4/8/4 49/103/4
f 20/45/5 18/41/5 3/6/5 4/9/5
f 55/112/6 50/105/6 1/1/6 2/3/6
f 2/4/5 1/2/5 10/25/5 12/29/5
f 55/111/4 2/5/4 12/30/4 57/115/4
f 13/31/3 15/35/3 11/27/3 9/23/3
f 28/61/1 5/12/1 11/28/1 30/66/1
f 23/51/3 21/48/3 15/35/3 13/31/3
f 12/29/5 10/25/5 14/33/5 16/38/5
f 57/115/4 12/30/4 16/37/4 58/118/4
f 30/66/1 11/28/1 15/36/1 32/70/1
f 8/21/3 7/19/3 19/44/3 17/39/3
f 22/50/5 24/53/5 18/41/5 20/45/5
f 60/124/4 22/49/4 20/46/4 59/121/4
f 35/75/1 21/47/1 19/43/1 34/74/1
f 32/70/1 15/36/1 21/47/1 35/75/1
f 58/118/4 16/37/4 22/49/4 60/124/4
f 16/38/5 14/33/5 24/53/5 22/50/5
f 17/39/3 19/44/3 21/48/3 23/51/3
f 13/32/4 31/67/4 36/76/4 23/52/4
f 40/84/1 32/70/1 35/75/1 42/86/1
f 42/86/1 35/75/1 34/74/1 41/85/1
f 23/52/4 36/76/4 33/71/4 17/40/4
f 39/83/1 30/66/1 32/70/1 40/84/1
f 9/24/4 29/63/4 31/67/4 13/32/4
f 38/81/1 28/61/1 30/66/1 39/83/1
f 6/15/4 25/55/4 29/63/4 9/24/4
f 6/16/6 5/13/6 28/62/6 25/56/6
f 17/40/4 33/71/4 27/60/4 8/22/4
f 37/79/2 44/90/2 26/57/2 27/59/2
f 41/85/1 34/74/1 26/58/1 44/89/1
f 71/149/1 41/85/1 44/89/1 62/130/1
f 67/144/2 62/129/2 44/90/2 37/79/2
f 68/146/1 38/81/1 39/83/1 69/147/1
f 69/147/1 39/83/1 40/84/1 70/148/1
f 72/150/1 42/86/1 41/85/1 71/149/1
f 70/148/1 40/84/1 42/86/1 72/150/1
f 31/67/4 46/95/4 48/101/4 36/76/4
f 65/137/3 66/140/3 88/196/3 87/193/3
f 46/94/2 31/68/2 76/160/2 75/157/2
f 25/55/4 43/88/4 45/91/4 29/63/4
f 25/56/6 28/62/6 38/82/6 43/87/6
f 33/71/4 47/98/4 37/80/4 27/60/4
f 14/34/1 52/108/1 54/110/1 24/54/1
f 24/54/1 54/110/1 53/109/1 18/42/1
f 10/26/1 51/107/1 52/108/1 14/34/1
f 1/2/1 50/106/1 51/107/1 10/26/1
f 4/10/2 3/7/2 56/113/2 49/104/2
f 18/42/1 53/109/1 56/114/1 3/7/1
f 64/135/4 58/118/4 60/124/4 66/141/4
f 48/100/5 47/97/5 77/163/5 79/169/5
f 64/134/3 63/131/3 85/187/3 86/190/3
f 61/128/4 55/111/4 57/115/4 63/132/4
f 61/127/6 68/145/6 50/105/6 55/112/6
f 65/138/4 59/121/4 49/103/4 67/143/4
f 47/98/4 65/138/4 67/143/4 37/80/4
f 43/87/6 38/82/6 68/145/6 61/127/6
f 43/88/4 61/128/4 63/132/4 45/91/4
f 45/91/4 63/132/4 64/135/4 46/95/4
f 48/101/4 66/141/4 65/138/4 47/98/4
f 46/95/4 64/135/4 66/141/4 48/101/4
f 52/108/1 70/148/1 72/150/1 54/110/1
f 54/110/1 72/150/1 71/149/1 53/109/1
f 51/107/1 69/147/1 70/148/1 52/108/1
f 50/106/1 68/146/1 69/147/1 51/107/1
f 49/104/2 56/113/2 62/129/2 67/144/2
f 53/109/1 71/149/1 62/130/1 56/114/1
f 80/172/4 79/170/4 77/164/4 78/166/4
f 74/154/4 73/151/4 75/158/4 76/161/4
f 88/197/4 81/175/4 82/178/4 87/194/4
f 85/188/4 83/181/4 84/184/4 86/191/4
f 45/92/5 46/96/5 75/159/5 73/152/5
f 63/133/6 57/116/6 83/182/6 85/189/6
f 33/72/3 36/77/3 80/173/3 78/167/3
f 60/125/5 59/122/5 82/179/5 81/176/5
f 47/99/2 33/73/2 78/168/2 77/165/2
f 58/119/2 64/136/2 86/192/2 84/185/2
f 57/117/5 58/120/5 84/186/5 83/183/5
f 59/123/2 65/139/2 87/195/2 82/180/2
f 31/69/3 29/64/3 74/155/3 76/162/3
f 66/142/6 60/126/6 81/177/6 88/198/6
f 36/78/6 48/102/6 79/171/6 80/174/6
f 29/65/6 45/93/6 73/153/6 74/156/6
o Cube.004
v -4.473732 3.244244 -12.756454
v -4.473732 3.037728 -12.756454
v -4.447165 3.244244 -14.751927
v -4.447165 3.037728 -14.751927
v -1.869765 3.244246 -12.721786
v -1.869765 3.037728 -12.721786
v -1.843199 3.244246 -14.717259
v -1.843199 3.037728 -14.717259
v -1.785198 3.058053 -13.385095
v -4.465983 3.244244 -13.338467
v -1.785198 3.223921 -13.385095
v -4.465983 3.037728 -13.338467
v -1.776255 3.058053 -14.056786
v -4.454849 3.244244 -14.174766
v -1.776255 3.223921 -14.056786
v -4.454849 3.037728 -14.174766
v -1.157510 3.207857 -13.983487
v -1.164720 3.207857 -13.441897
v -1.164720 3.074117 -13.441897
v -1.157510 3.074117 -13.983487
v -1.435801 3.207999 -13.987764
v -1.435801 3.073975 -13.987764
v -1.443027 3.073975 -13.445027
v -1.443027 3.207999 -13.445027
v -1.651638 3.084108 -13.949594
v -1.657771 3.084108 -13.488931
v -1.657771 3.197866 -13.488931
v -1.651638 3.197866 -13.949594
v -1.315921 3.218451 -14.028503
v -1.315921 3.063523 -14.028503
v -1.324274 3.063523 -13.401112
v -1.324274 3.218451 -13.401112
v -1.545456 3.195067 -13.936843
v -1.545456 3.086906 -13.936843
v -1.551287 3.086906 -13.498851
v -1.551287 3.195067 -13.498851
v -1.714198 3.075724 -13.984384
v -1.721235 3.075724 -13.455817
v -1.721235 3.206250 -13.455817
v -1.714198 3.206250 -13.984384
v -1.593440 3.089390 -13.927423
v -1.599003 3.089390 -13.509542
v -1.599003 3.192584 -13.509542
v -1.593440 3.192584 -13.927423
v -1.373237 3.067921 -14.011443
v -1.381115 3.067921 -13.419690
v -1.381115 3.214052 -13.419690
v -1.373237 3.214052 -14.011443
v -1.239747 3.217549 -14.023833
v -1.239747 3.064424 -14.023833
v -1.248002 3.064424 -13.403753
v -1.248002 3.217549 -13.403753
v -1.079168 3.188264 -13.903088
v -1.084266 3.188264 -13.520180
v -1.084266 3.093710 -13.520180
v -1.079168 3.093710 -13.903088
v -1.035908 3.162747 -13.799153
v -1.038255 3.162747 -13.622927
v -1.038255 3.119227 -13.622927
v -1.035908 3.119227 -13.799153
vn 0.0034 0.9999 0.0163
vn 0.0133 -0.0000 -0.9999
vn 0.9920 -0.0000 0.1265
vn 0.0034 -0.9999 0.0163
vn -0.9999 -0.0000 -0.0133
vn -0.0133 -0.0000 0.9999
vn 0.0038 -0.9999 -0.0160
vn 0.4405 -0.0000 -0.8978
vn 0.0038 0.9999 -0.0160
vn 0.9949 -0.0000 -0.1008
vn 0.0076 -1.0000 0.0001
vn 0.0076 1.0000 0.0001
vn 0.2395 -0.9709 0.0032
vn 0.1163 -0.9932 0.0015
vn 0.4164 -0.0000 0.9092
vn 0.1163 0.9932 0.0015
vn -0.1178 0.9930 -0.0016
vn -0.4452 -0.0000 0.8954
vn -0.1178 -0.9930 -0.0016
vn -0.4212 -0.0000 -0.9070
vn 0.4860 -0.0000 -0.8740
vn 0.1319 -0.9913 0.0018
vn 0.4626 -0.0000 0.8866
vn 0.1319 0.9913 0.0018
vn -0.0768 0.9970 -0.0010
vn -0.3107 -0.0000 0.9505
vn -0.0768 -0.9970 -0.0010
vn -0.2853 -0.0000 -0.9584
vn -0.1926 -0.0000 -0.9813
vn -0.0518 -0.9987 -0.0007
vn -0.2187 -0.0000 0.9758
vn -0.0518 0.9987 -0.0007
vn 0.2700 0.9629 0.0036
vn 0.7417 -0.0000 0.6708
vn 0.2700 -0.9629 0.0036
vn 0.7593 -0.0000 -0.6508
vn 0.0899 0.9959 0.0012
vn 0.3310 -0.0000 0.9436
vn 0.0899 -0.9959 0.0012
vn 0.3560 -0.0000 -0.9345
vn -0.3540 -0.0000 -0.9353
vn -0.0968 -0.9953 -0.0013
vn -0.3788 -0.0000 0.9255
vn -0.0968 0.9953 -0.0013
vn 0.0118 0.9999 0.0002
vn 0.0346 -0.0000 0.9994
vn 0.0118 -0.9999 0.0002
vn 0.0612 -0.0000 -0.9981
vn 0.9232 -0.0000 -0.3843
vn 0.2395 0.9709 0.0032
vn 0.7162 -0.0000 -0.6979
vn 0.6974 -0.0000 0.7167
vn 0.9999 -0.0000 0.0133
vn 0.9127 -0.0000 0.4087
vn 0.4962 -0.8682 0.0066
vn 0.4962 0.8682 0.0066
vt 0.365799 0.365799
vt 0.365799 0.263678
vt 0.365799 0.000000
vt 0.730350 0.731597
vt 0.730350 0.731597
vt 0.000000 0.263678
vt 0.730350 0.365799
vt 0.000000 0.000000
vt 0.000000 0.883017
vt 0.730768 0.365799
vt 0.365799 0.517218
vt 0.000000 0.517218
vt 0.730768 0.000000
vt 0.983890 0.731597
vt 0.000000 0.517218
vt 0.365799 0.731597
vt 0.364539 0.883017
vt 0.365799 0.365799
vt 0.983890 0.365799
vt 0.364539 0.517218
vt 0.965313 0.609819
vt 0.120477 0.553218
vt 0.259107 0.263678
vt 0.244020 0.498641
vt 0.120477 0.847017
vt 0.259107 0.000000
vt 0.730350 0.624906
vt 0.965313 0.486688
vt 0.243183 0.553218
vt 0.105802 0.263678
vt 0.120889 0.498641
vt 0.243183 0.847017
vt 0.105802 0.000000
vt 0.730350 0.471601
vt 0.922068 0.018765
vt 0.835912 0.254059
vt 0.922068 0.018765
vt 0.736973 0.254059
vt 0.922068 0.255658
vt 0.736973 0.017166
vt 0.922068 0.255658
vt 0.835912 0.017166
vt 0.883115 0.018515
vt 0.400750 0.838848
vt 0.883115 0.255909
vt 0.463213 0.838848
vt 0.463213 0.739357
vt 0.961081 0.255909
vt 0.961081 0.018515
vt 0.400750 0.739357
vt 0.222440 0.599369
vt 0.852354 0.237960
vt 0.990750 0.237960
vt 0.138284 0.599369
vt 0.138284 0.800866
vt 0.990750 0.036464
vt 0.222440 0.800866
vt 0.852354 0.036464
vt 0.425713 0.846608
vt 0.900459 0.000000
vt 0.438250 0.846607
vt 0.900459 0.274423
vt 0.944880 0.274423
vt 0.438250 0.731597
vt 0.425713 0.731597
vt 0.944880 0.000000
vt 0.867069 0.041422
vt 0.373628 0.829248
vt 0.867069 0.233002
vt 0.490334 0.829248
vt 0.490334 0.748957
vt 0.975706 0.233002
vt 0.975706 0.041422
vt 0.373628 0.748957
vt 0.844046 0.252810
vt 0.229376 0.584519
vt 1.000000 0.252810
vt 0.132816 0.584519
vt 1.000000 0.021613
vt 0.132816 0.815716
vt 0.844046 0.021613
vt 0.229376 0.815716
vt 0.498164 0.827404
vt 0.217850 0.608726
vt 0.860218 0.228603
vt 0.498164 0.750801
vt 0.982289 0.228603
vt 0.141511 0.608726
vt 0.365799 0.750801
vt 0.141511 0.791509
vt 0.982289 0.045820
vt 0.365799 0.827404
vt 0.217850 0.791509
vt 0.860218 0.045820
vt 0.892199 0.266629
vt 0.449426 0.843341
vt 0.449426 0.734864
vt 0.952660 0.266629
vt 0.952660 0.007794
vt 0.414537 0.734864
vt 0.892199 0.007794
vt 0.414537 0.843341
vt 0.844046 0.271224
vt 0.431981 0.845937
vt 0.911075 0.001599
vt 0.844046 0.000000
vt 0.431981 0.845937
vt 0.911075 0.272824
vt 0.730768 0.000000
vt 0.934152 0.272824
vt 0.431981 0.732268
vt 0.730768 0.271224
vt 0.431981 0.732268
vt 0.934152 0.001599
vt 0.820493 0.219355
vt 0.750542 0.219355
vt 0.750542 0.051870
vt 0.820493 0.051870
vt 0.801094 0.174153
vt 0.768901 0.174153
vt 0.768901 0.097071
vt 0.801094 0.097071
s 0
usemtl Material.009
f 102/228/7 103/229/7 95/213/7 91/204/7
f 92/205/8 91/203/8 95/214/8 96/216/8
f 97/220/9 99/223/9 93/207/9 94/210/9
f 101/226/10 104/232/10 92/205/10 96/217/10
f 104/231/11 102/228/11 91/204/11 92/206/11
f 94/211/12 93/208/12 89/199/12 90/201/12
f 90/201/11 89/200/11 98/221/11 100/224/11
f 94/212/13 90/202/13 100/225/13 97/219/13
f 138/306/14 137/303/14 105/233/14 108/239/14
f 89/200/15 93/209/15 99/222/15 98/221/15
f 96/218/16 95/215/16 103/230/16 101/227/16
f 100/224/11 98/221/11 102/228/11 104/231/11
f 97/219/17 100/225/17 104/232/17 101/226/17
f 98/221/18 99/222/18 103/229/18 102/228/18
f 107/238/19 108/240/19 144/316/19 143/315/19
f 139/307/20 138/304/20 108/240/20 107/238/20
f 140/312/21 139/308/21 107/237/21 106/235/21
f 137/301/22 140/310/22 106/236/22 105/234/22
f 121/266/23 124/272/23 112/248/23 109/242/23
f 124/271/24 123/270/24 111/246/24 112/247/24
f 123/269/25 122/268/25 110/244/25 111/245/25
f 122/267/26 121/265/26 109/241/26 110/243/26
f 125/273/27 128/279/27 116/256/27 113/250/27
f 126/276/28 125/274/28 113/249/28 114/252/28
f 127/277/29 126/275/29 114/251/29 115/254/29
f 128/280/30 127/278/30 115/253/30 116/255/30
f 136/300/31 135/298/31 120/263/31 117/257/31
f 135/297/32 134/296/32 119/261/32 120/264/32
f 134/295/33 133/294/33 118/259/33 119/262/33
f 133/293/34 136/299/34 117/258/34 118/260/34
f 129/283/35 132/292/35 121/265/35 122/267/35
f 130/284/36 129/281/36 122/268/36 123/269/36
f 131/289/37 130/285/37 123/270/37 124/271/37
f 132/290/38 131/287/38 124/272/38 121/266/38
f 103/230/39 99/223/39 127/278/39 128/280/39
f 99/223/40 97/220/40 126/276/40 127/278/40
f 97/220/41 101/227/41 125/274/41 126/276/41
f 101/227/42 103/230/42 128/280/42 125/274/42
f 116/255/43 115/253/43 131/288/43 132/291/43
f 115/254/44 114/251/44 130/285/44 131/289/44
f 114/252/45 113/249/45 129/282/45 130/286/45
f 113/250/46 116/256/46 132/292/46 129/283/46
f 110/243/47 109/241/47 136/299/47 133/293/47
f 111/245/48 110/244/48 133/294/48 134/295/48
f 112/247/49 111/246/49 134/296/49 135/297/49
f 109/242/50 112/248/50 135/298/50 136/300/50
f 117/257/51 120/263/51 140/311/51 137/302/51
f 120/264/52 119/261/52 139/308/52 140/312/52
f 119/262/53 118/259/53 138/305/53 139/309/53
f 118/260/54 117/258/54 137/303/54 138/306/54
f 144/316/55 141/313/55 145/317/55 148/320/55
f 105/234/56 106/236/56 142/314/56 141/313/56
f 108/240/57 105/234/57 141/313/57 144/316/57
f 106/236/58 107/238/58 143/315/58 142/314/58
f 148/320/59 145/317/59 146/318/59 147/319/59
f 142/314/60 143/315/60 147/319/60 146/318/60
f 143/315/61 144/316/61 148/320/61 147/319/61
f 141/313/62 142/314/62 146/318/62 145/317/62
