# Blender 3.5.0
# www.blender.org
mtllib foodtruckinside_cage.mtl
o Cube.015
v -10.088052 0.000924 -16.667929
v -10.088052 0.000923 16.475218
v -10.088052 0.992137 -16.667929
v -10.088052 0.992136 16.475218
v 9.478316 0.000924 -16.667929
v 9.478316 0.000923 16.475218
v 9.478316 0.992137 -16.667929
v 9.478316 0.992136 16.475218
vn -1.0000 -0.0000 -0.0000
vn -0.0000 1.0000 -0.0000
vn 1.0000 -0.0000 -0.0000
vn -0.0000 -1.0000 -0.0000
vn -0.0000 -0.0000 -1.0000
vn -0.0000 -0.0000 1.0000
vt 1.000000 0.000000
vt 0.333333 0.000000
vt 0.333333 0.666667
vt 1.000000 0.333333
vt 0.333333 0.333333
vt 0.333333 1.000000
vt 0.666667 0.000000
vt 0.333333 0.000000
vt 0.333333 0.333333
vt 0.666667 0.333333
vt 0.333333 0.333333
vt 0.333333 0.666667
vt 0.000000 0.333333
vt 0.666667 0.000000
vt 0.666667 0.666667
vt 0.000000 0.666667
vt 0.666667 0.333333
vt 0.000000 1.000000
vt 0.000000 0.000000
vt 0.333333 0.333333
vt 0.666667 0.333333
vt 0.000000 0.333333
vt 0.333333 0.666667
vt 0.000000 0.666667
s 0
usemtl Material.022
f 1/1/1 2/4/1 4/10/1 3/7/1
f 3/8/2 4/11/2 8/22/2 7/19/2
f 7/20/3 8/23/3 6/16/3 5/13/3
f 5/14/4 6/17/4 2/5/4 1/2/4
f 3/9/5 7/21/5 5/15/5 1/3/5
f 8/24/6 4/12/6 2/6/6 6/18/6
o Cube.018
v 18.070431 9.195541 11.165232
v 18.078455 10.337432 11.165232
v 17.867685 9.196966 11.165232
v 17.875710 10.338857 11.165232
v 18.070431 9.195542 -11.360218
v 18.078455 10.337433 -11.360218
v 17.867685 9.196967 -11.360218
v 17.875710 10.338858 -11.360218
v 18.081190 10.348141 11.165233
v 10.146770 13.019972 11.165233
v 18.016483 10.155984 11.165233
v 10.082062 12.827816 11.165233
v 18.081188 10.348140 -11.360219
v 10.146769 13.019972 -11.360219
v 18.016481 10.155983 -11.360219
v 10.082062 12.827814 -11.360219
vn -0.0000 -0.0000 1.0000
vn -1.0000 0.0070 -0.0000
vn -0.0000 -0.0000 -1.0000
vn 1.0000 -0.0070 -0.0000
vn -0.0070 -1.0000 -0.0000
vn 0.0070 1.0000 -0.0000
vn -0.3191 -0.9477 -0.0000
vn 0.3191 0.9477 -0.0000
vn 0.9477 -0.3191 -0.0000
vn -0.9477 0.3191 -0.0000
vt 0.085194 0.000000
vt 0.059938 0.025256
vt 0.110189 0.025256
vt 0.085194 0.025256
vt 0.059938 0.050512
vt 0.085194 0.050512
vt 0.059938 0.000000
vt 0.085194 0.075768
vt 0.085194 0.025256
vt 0.059938 0.025256
vt 0.085194 0.101024
vt 0.110189 0.050512
vt 0.059938 0.050512
vt 0.085194 0.025256
vt 0.110189 0.000000
vt 0.059938 0.075768
vt 0.085194 0.050512
vt 0.085194 0.025256
vt 0.059938 0.075768
vt 0.085194 0.050512
vt 0.085194 0.000000
vt 0.059938 0.101024
vt 0.085194 0.075768
vt 0.110189 0.025256
vt 0.059938 0.000000
vt 0.025256 0.980591
vt 0.050512 0.000000
vt 0.059938 0.992370
vt 0.025256 0.008421
vt 0.055225 0.007630
vt 0.050512 0.008421
vt 0.055225 1.000000
vt 0.050512 0.980591
vt 0.025256 0.000000
vt 0.055225 1.000000
vt 0.000000 0.980591
vt 0.025256 0.000000
vt 0.055225 0.007630
vt 0.000000 0.008421
vt 0.050512 0.992370
vt 0.025256 0.008421
vt 0.025256 0.980591
vt 0.050512 0.000000
vt 0.000000 0.000000
s 0
usemtl Material.020
f 9/25/7 10/28/7 12/34/7 11/31/7
f 11/32/8 12/35/8 16/46/8 15/43/8
f 15/44/9 16/47/9 14/40/9 13/37/9
f 13/38/10 14/41/10 10/29/10 9/26/10
f 11/33/11 15/45/11 13/39/11 9/27/11
f 16/48/12 12/36/12 10/30/12 14/42/12
f 17/49/7 18/52/7 20/56/7 19/54/7
f 19/55/13 20/57/13 24/66/13 23/65/13
f 23/64/9 24/67/9 22/62/9 21/59/9
f 21/60/14 22/63/14 18/53/14 17/50/14
f 19/55/15 23/65/15 21/61/15 17/51/15
f 24/68/16 20/58/16 18/53/16 22/63/16
o Cube.017
v 7.754921 12.305062 17.275961
v 9.360592 12.305062 17.275961
v 7.754921 12.305062 16.335379
v 9.360592 12.305062 16.335379
v 7.754920 0.482928 17.275961
v 9.360592 0.482928 17.275961
v 7.754920 0.482928 16.335379
v 9.360592 0.482928 16.335379
v 10.302933 12.909583 14.557318
v 10.302932 12.909583 11.223044
v 9.526391 12.909583 14.557318
v 9.526391 12.909583 11.223044
v 10.302933 1.407457 14.557319
v 10.302933 1.407457 11.223045
v 9.526391 1.407457 14.557319
v 9.526391 1.407457 11.223045
v 10.301869 0.490048 12.499977
v 10.301869 3.824322 12.499977
v 9.490781 0.490048 12.499978
v 9.490781 3.824322 12.499977
v 10.301868 0.490047 -12.534159
v 10.301868 3.824322 -12.534159
v 9.490780 0.490047 -12.534159
v 9.490780 3.824322 -12.534159
v 10.295137 13.069588 -11.205017
v 10.295137 13.069588 -14.539291
v 9.508034 13.069588 -11.205017
v 9.508034 13.069588 -14.539291
v 10.295137 1.247453 -11.205017
v 10.295137 1.247452 -14.539291
v 9.508034 1.247453 -11.205017
v 9.508034 1.247452 -14.539291
v -10.088053 0.001739 17.297070
v -10.088053 13.137266 17.297070
v -10.088053 0.001739 16.305857
v -10.088053 13.137266 16.305861
v 9.478315 0.001739 17.297070
v 9.478315 13.137266 17.297071
v 9.478315 0.001739 16.305861
v 9.478315 13.137266 16.305859
v -8.194374 0.001739 16.305857
v -8.194374 13.137266 16.305861
v -8.194374 0.001739 17.297070
v -8.194374 13.137266 17.297070
v -1.205480 13.137266 16.305861
v -1.205480 0.001738 17.297070
v -1.205480 0.001738 16.305861
v -1.205480 13.137266 17.297070
v 0.831685 13.137266 16.305861
v 0.831684 0.001738 17.297070
v 0.831684 0.001738 16.305861
v 0.831685 13.137266 17.297070
v 7.758723 13.137266 16.305859
v 7.758723 0.001739 17.297070
v 7.758723 0.001739 16.305861
v 7.758723 13.137266 17.297071
v -10.088053 7.077921 17.297070
v -10.088053 7.077921 16.305855
v 9.478315 7.077921 16.305861
v 9.478315 7.077921 17.297071
v -8.194374 7.077921 17.297070
v -8.194374 7.077921 16.305861
v -1.205480 7.077921 17.297070
v -1.205480 7.077921 16.305861
v 0.831684 7.077921 17.297070
v 0.831684 7.077921 16.305861
v 7.758723 7.077921 17.297070
v 7.758723 7.077921 16.305861
v -10.088053 10.825464 17.297070
v -10.088053 10.825463 16.305861
v 9.478315 10.825463 16.305859
v 9.478315 10.825463 17.297071
v -8.194374 10.825464 17.297070
v -8.194374 10.825463 16.305861
v -1.205480 10.825464 17.297070
v -1.205480 10.825463 16.305861
v 0.831684 10.825464 17.297070
v 0.831684 10.825463 16.305861
v 7.758723 10.825463 17.297071
v 7.758723 10.825463 16.305861
v -0.185132 0.001740 16.464413
v -0.185132 13.137264 17.138515
v -0.185132 13.137264 16.464413
v -0.185134 0.001740 17.138515
v -0.185132 7.077921 16.464413
v -0.185132 7.077921 17.138515
v -0.185132 10.825463 16.464413
v -0.185132 10.825464 17.138515
v 10.349230 -0.028261 17.296186
v 10.349230 13.167266 17.296186
v 9.438017 -0.028261 17.296186
v 9.438017 13.167266 17.296186
v 10.349229 -0.028262 -17.491182
v 10.349229 13.167265 -17.491182
v 9.438015 -0.028262 -17.491182
v 9.438015 13.167265 -17.491182
v 10.349230 3.840650 17.296186
v 9.438017 3.840650 17.296186
v 9.438015 3.840649 -17.491182
v 10.349229 3.840649 -17.491182
v 9.438016 -0.028262 11.222715
v 9.438016 13.167266 11.222717
v 10.349230 -0.028262 11.222715
v 10.349230 13.167266 11.222717
v 10.349230 3.840649 11.222717
v 9.438016 3.840649 11.222717
v 9.438016 13.167267 -11.161226
v 10.349229 -0.028261 -11.161226
v 9.438016 3.840649 -11.161226
v 9.438016 -0.028261 -11.161226
v 10.349229 13.167267 -11.161226
v 10.349229 3.840649 -11.161226
v 10.349230 12.480625 17.296186
v 9.438017 12.480625 17.296186
v 9.438015 12.480625 -17.491182
v 10.349229 12.480625 -17.491182
v 10.349230 12.480625 11.222717
v 9.438016 12.480625 11.222717
v 10.349229 12.480625 -11.161226
v 9.438016 12.480625 -11.161226
v -10.088053 0.001739 -16.506704
v -10.088053 13.137264 -16.506704
v -10.088053 0.001739 -17.497915
v -10.088053 13.137264 -17.497915
v 9.478317 0.001739 -16.506704
v 9.478317 13.137264 -16.506704
v 9.478317 0.001739 -17.497915
v 9.478317 13.137264 -17.497915
v -8.321432 5.461172 17.275959
v -8.321432 7.066843 17.275959
v -8.321432 5.461172 16.335377
v -8.321432 7.066843 16.335377
v -1.144428 5.461172 17.275959
v -1.144428 7.066843 17.275959
v -1.144428 5.461172 16.335377
v -1.144428 7.066843 16.335377
v 0.704204 5.461172 17.275959
v 0.704204 7.066843 17.275959
v 0.704204 5.461172 16.335377
v 0.704204 7.066843 16.335377
v 7.881209 5.461172 17.275959
v 7.881209 7.066843 17.275959
v 7.881209 5.461172 16.335377
v 7.881209 7.066843 16.335377
v -1.204283 12.305062 17.275959
v -0.421865 12.305062 17.275959
v -1.204283 12.305062 16.335377
v -0.421865 12.305062 16.335377
v -1.204283 0.482929 17.275959
v -0.421865 0.482929 17.275959
v -1.204283 0.482929 16.335377
v -0.421865 0.482929 16.335377
vn -0.0000 1.0000 -0.0000
vn -0.0000 -0.0000 -1.0000
vn -0.0000 -1.0000 -0.0000
vn -0.0000 -0.0000 1.0000
vn -1.0000 -0.0000 -0.0000
vn 1.0000 -0.0000 -0.0000
vn 0.1535 -0.0000 0.9881
vn -0.1541 -0.0000 -0.9881
vn -0.1541 -0.0000 0.9881
vn 0.1535 -0.0000 -0.9881
vt 0.292606 0.359522
vt 0.324010 0.359522
vt 0.296972 0.356518
vt 0.292606 0.386560
vt 0.324010 0.386560
vt 0.209758 0.386560
vt 0.265568 0.359522
vt 0.324010 0.356518
vt 0.296972 0.329480
vt 0.265568 0.386560
vt 0.324010 0.383556
vt 0.209758 0.359522
vt 0.238530 0.359522
vt 0.351048 0.359522
vt 0.324010 0.356518
vt 0.238530 0.386560
vt 0.351048 0.386560
vt 0.182720 0.386560
vt 0.296972 0.356518
vt 0.265568 0.359522
vt 0.324010 0.329480
vt 0.296972 0.383556
vt 0.265568 0.386560
vt 0.182720 0.359522
vt 0.156937 0.329480
vt 0.091046 0.329480
vt 0.211141 0.412866
vt 0.156937 0.425327
vt 0.091046 0.425327
vt 0.394007 0.389601
vt 0.143861 0.329480
vt 0.394793 0.408396
vt 0.198064 0.412866
vt 0.143861 0.425327
vt 0.394793 0.312549
vt 0.380930 0.389601
vt 0.170013 0.425327
vt 0.117353 0.329480
vt 0.211141 0.386560
vt 0.170013 0.329480
vt 0.117353 0.425327
vt 0.394007 0.415907
vt 0.421099 0.408396
vt 0.156937 0.425327
vt 0.198064 0.386560
vt 0.421099 0.312549
vt 0.156937 0.329480
vt 0.380930 0.415907
vt 0.177639 0.356796
vt 0.352504 0.719633
vt 0.211214 0.000000
vt 0.170013 0.356796
vt 0.360130 0.719633
vt 0.224872 0.719633
vt 0.177639 0.343138
vt 0.360130 0.000000
vt 0.224872 0.000000
vt 0.170013 0.343138
vt 0.367755 0.000000
vt 0.238530 0.719633
vt 0.177639 0.329480
vt 0.352504 0.000000
vt 0.211214 0.719633
vt 0.170013 0.329480
vt 0.360129 0.000000
vt 0.224872 0.000000
vt 0.360130 0.719633
vt 0.177639 0.343138
vt 0.224872 0.719633
vt 0.367755 0.719633
vt 0.170013 0.343138
vt 0.238530 0.000000
vt 0.143861 0.329480
vt 0.421831 0.216701
vt 0.280382 0.413598
vt 0.143861 0.425327
vt 0.421831 0.120854
vt 0.253874 0.413598
vt 0.130607 0.329480
vt 0.394793 0.312549
vt 0.267128 0.413598
vt 0.130607 0.425327
vt 0.394793 0.216702
vt 0.267128 0.413598
vt 0.117353 0.329480
vt 0.394793 0.216701
vt 0.280382 0.386560
vt 0.117353 0.425327
vt 0.394793 0.120854
vt 0.253874 0.386560
vt 0.421831 0.312549
vt 0.130607 0.329480
vt 0.267128 0.386560
vt 0.421831 0.216702
vt 0.130607 0.425327
vt 0.267128 0.386560
vt 0.238530 0.000000
vt 0.121088 0.000000
vt 0.182720 0.359522
vt 0.182720 0.329480
vt 0.091046 0.000000
vt 0.295517 0.000000
vt 0.267024 0.000000
vt 0.181172 0.329480
vt 0.211214 0.359522
vt 0.211214 0.329480
vt 0.267024 0.000000
vt 0.151130 0.329480
vt 0.121088 0.329480
vt 0.238530 0.329480
vt 0.238530 0.359522
vt 0.091046 0.329480
vt 0.295517 0.329480
vt 0.267023 0.329480
vt 0.181172 0.000000
vt 0.151130 0.000000
vt 0.267023 0.359522
vt 0.267023 0.329480
vt 0.267024 0.031888
vt 0.181172 0.297592
vt 0.267024 0.031888
vt 0.151130 0.297592
vt 0.238530 0.031888
vt 0.121088 0.031888
vt 0.295517 0.031888
vt 0.091046 0.031888
vt 0.267024 0.149574
vt 0.151130 0.179905
vt 0.121088 0.149574
vt 0.238530 0.149574
vt 0.181172 0.179905
vt 0.267023 0.149574
vt 0.091046 0.149574
vt 0.295517 0.149574
vt 0.151130 0.145601
vt 0.267024 0.183878
vt 0.238530 0.183878
vt 0.121088 0.183878
vt 0.267023 0.183878
vt 0.181172 0.145601
vt 0.295517 0.183878
vt 0.091046 0.183878
vt 0.267023 0.300524
vt 0.151130 0.028956
vt 0.238530 0.300524
vt 0.121088 0.300524
vt 0.267023 0.300524
vt 0.181172 0.028956
vt 0.091046 0.300524
vt 0.295517 0.300524
vt 0.104905 0.000000
vt 0.182720 0.343338
vt 0.164988 0.329480
vt 0.211214 0.343338
vt 0.267023 0.345664
vt 0.164988 0.000000
vt 0.104905 0.329480
vt 0.238530 0.345664
vt 0.104905 0.031888
vt 0.164988 0.297592
vt 0.104905 0.149574
vt 0.164988 0.179905
vt 0.104905 0.183878
vt 0.164988 0.145601
vt 0.104905 0.300524
vt 0.164988 0.028956
vt 0.096334 0.000000
vt 0.182720 0.334767
vt 0.156417 0.329480
vt 0.211214 0.334767
vt 0.267023 0.354235
vt 0.156417 0.000000
vt 0.096334 0.329480
vt 0.238530 0.354235
vt 0.096334 0.031888
vt 0.156417 0.297592
vt 0.096334 0.149574
vt 0.156417 0.179905
vt 0.096334 0.183878
vt 0.156417 0.145601
vt 0.096334 0.300524
vt 0.156417 0.028956
vt 0.181172 0.162724
vt 0.262466 0.166756
vt 0.290959 0.166756
vt 0.091046 0.166756
vt 0.151130 0.162724
vt 0.271581 0.166756
vt 0.121088 0.166756
vt 0.243088 0.166756
vt 0.164988 0.162724
vt 0.104905 0.166756
vt 0.156417 0.162724
vt 0.096334 0.166756
vt 0.253874 0.386560
vt 0.060358 0.000000
vt 0.253874 0.416739
vt 0.030179 0.000000
vt 0.075702 1.000000
vt 0.238530 0.386560
vt 0.030179 1.000000
vt 0.075702 0.000000
vt 0.238530 0.416739
vt 0.091046 1.000000
vt 0.000000 1.000000
vt 0.198064 0.416739
vt 0.060358 1.000000
vt 0.198064 0.386560
vt 0.030179 1.000000
vt 0.075702 0.000000
vt 0.075702 1.000000
vt 0.182720 0.416739
vt 0.030179 0.000000
vt 0.000000 0.000000
vt 0.182720 0.386560
vt 0.091046 0.000000
vt 0.051510 0.000000
vt 0.253874 0.395408
vt 0.021331 1.000000
vt 0.238530 0.395408
vt 0.182720 0.407891
vt 0.021331 0.000000
vt 0.051510 1.000000
vt 0.198064 0.407891
vt 0.030179 0.825412
vt 0.075702 0.174588
vt 0.091046 0.825412
vt 0.000000 0.825412
vt 0.060358 0.174588
vt 0.075702 0.825412
vt 0.030179 0.174588
vt 0.051510 0.174588
vt 0.021331 0.825412
vt 0.091046 0.181961
vt 0.000000 0.181961
vt 0.060358 0.818039
vt 0.021331 0.181961
vt 0.030179 0.181961
vt 0.075702 0.818039
vt 0.030179 0.818039
vt 0.075702 0.181961
vt 0.051510 0.818039
vt 0.031750 0.000000
vt 0.253874 0.415169
vt 0.001570 1.000000
vt 0.238530 0.415169
vt 0.182720 0.388130
vt 0.001570 0.000000
vt 0.031750 1.000000
vt 0.198064 0.388130
vt 0.031750 0.174588
vt 0.001570 0.825412
vt 0.031750 0.818039
vt 0.001570 0.181961
vt 0.267023 0.359522
vt 0.151130 0.000000
vt 0.295517 0.000000
vt 0.267023 0.329480
vt 0.121088 0.000000
vt 0.352504 0.000000
vt 0.295517 0.359522
vt 0.211214 0.329480
vt 0.324010 0.000000
vt 0.295517 0.329480
vt 0.181172 0.329480
vt 0.324010 0.000000
vt 0.324010 0.329480
vt 0.151130 0.329480
vt 0.295517 0.329480
vt 0.324010 0.359522
vt 0.121088 0.329480
vt 0.352504 0.329480
vt 0.211214 0.000000
vt 0.352504 0.329480
vt 0.324010 0.329480
vt 0.181172 0.000000
vt 0.352504 0.359522
vt 0.324010 0.329480
vt 0.173686 0.383834
vt 0.425504 0.241709
vt 0.367755 0.241709
vt 0.170013 0.383834
vt 0.421831 0.241709
vt 0.421831 0.000000
vt 0.173686 0.356796
vt 0.425504 0.000000
vt 0.394793 0.241709
vt 0.170013 0.356796
vt 0.429176 0.000000
vt 0.394793 0.000000
vt 0.179048 0.383556
vt 0.425504 0.362563
vt 0.367755 0.362563
vt 0.182720 0.383556
vt 0.421831 0.362563
vt 0.421831 0.120854
vt 0.425504 0.120854
vt 0.179048 0.356518
vt 0.394793 0.362563
vt 0.429176 0.120854
vt 0.182720 0.356518
vt 0.394793 0.120854
vt 0.182720 0.356518
vt 0.425504 0.120854
vt 0.367755 0.000000
vt 0.179048 0.356518
vt 0.421831 0.120854
vt 0.394793 0.120854
vt 0.182720 0.329480
vt 0.421831 0.000000
vt 0.394793 0.000000
vt 0.179048 0.329480
vt 0.425504 0.000000
vt 0.367755 0.120854
vt 0.173686 0.383834
vt 0.425504 0.241709
vt 0.367755 0.120854
vt 0.177358 0.383834
vt 0.421831 0.241709
vt 0.394793 0.241709
vt 0.421831 0.120854
vt 0.173686 0.356796
vt 0.394793 0.120854
vt 0.425504 0.120854
vt 0.177358 0.356796
vt 0.367755 0.241709
vt 0.380930 0.416639
vt 0.293557 0.386560
vt 0.367755 0.389601
vt 0.367755 0.416639
vt 0.280382 0.386560
vt 0.324010 0.410594
vt 0.380930 0.389601
vt 0.337186 0.413598
vt 0.367755 0.362563
vt 0.367755 0.389601
vt 0.324010 0.413598
vt 0.324010 0.383556
vt 0.350361 0.386560
vt 0.293557 0.413598
vt 0.394793 0.389601
vt 0.337186 0.386560
vt 0.280382 0.413598
vt 0.296972 0.410594
vt 0.337186 0.386560
vt 0.350361 0.413598
vt 0.394793 0.362563
vt 0.324010 0.386560
vt 0.337186 0.413598
vt 0.296972 0.383556
s 0
usemtl Material.021
f 25/69/17 26/72/17 28/78/17 27/75/17
f 27/76/18 28/79/18 32/90/18 31/87/18
f 31/88/19 32/91/19 30/84/19 29/81/19
f 29/82/20 30/85/20 26/73/20 25/70/20
f 27/77/21 31/89/21 29/83/21 25/71/21
f 32/92/22 28/80/22 26/74/22 30/86/22
f 33/93/17 34/96/17 36/102/17 35/99/17
f 35/100/21 36/103/21 40/114/21 39/111/21
f 39/112/19 40/115/19 38/108/19 37/105/19
f 37/106/22 38/109/22 34/97/22 33/94/22
f 35/101/20 39/113/20 37/107/20 33/95/20
f 40/116/18 36/104/18 34/98/18 38/110/18
f 41/117/20 42/120/20 44/126/20 43/123/20
f 43/124/21 44/127/21 48/138/21 47/135/21
f 47/136/18 48/139/18 46/132/18 45/129/18
f 45/130/22 46/133/22 42/121/22 41/118/22
f 43/125/19 47/137/19 45/131/19 41/119/19
f 48/140/17 44/128/17 42/122/17 46/134/17
f 49/141/17 50/144/17 52/150/17 51/147/17
f 51/148/21 52/151/21 56/162/21 55/159/21
f 55/160/19 56/163/19 54/156/19 53/153/19
f 53/154/22 54/157/22 50/145/22 49/142/22
f 51/149/20 55/161/20 53/155/20 49/143/20
f 56/164/18 52/152/18 50/146/18 54/158/18
f 93/236/21 58/168/21 60/174/21 94/238/21
f 104/250/18 77/212/18 64/184/18 95/240/18
f 95/239/22 64/185/22 62/179/22 96/242/22
f 97/243/20 68/194/20 58/169/20 93/235/20
f 79/215/19 63/182/19 61/178/19 78/213/19
f 66/189/17 60/175/17 58/170/17 68/193/17
f 69/195/17 66/189/17 68/193/17 72/202/17
f 59/171/19 65/187/19 67/191/19 57/165/19
f 99/245/20 72/201/20 68/194/20 97/243/20
f 94/237/18 60/176/18 66/190/18 98/244/18
f 112/262/23 106/254/23 72/201/23 99/245/23
f 107/256/17 69/195/17 72/202/17 106/253/17
f 65/187/19 71/200/19 70/198/19 67/191/19
f 98/244/18 66/190/18 69/196/18 100/246/18
f 77/211/17 73/204/17 76/209/17 80/218/17
f 103/249/20 80/217/20 76/210/20 101/247/20
f 105/252/19 75/207/19 74/205/19 108/258/19
f 111/261/24 107/255/24 73/203/24 102/248/24
f 96/241/20 62/180/20 80/217/20 103/249/20
f 64/186/17 77/211/17 80/218/17 62/181/17
f 75/207/19 79/215/19 78/213/19 74/205/19
f 102/248/18 73/203/18 77/212/18 104/250/18
f 75/208/18 90/232/18 92/234/18 79/216/18
f 61/177/20 84/225/20 91/233/20 78/214/20
f 105/251/24 109/259/24 90/232/24 75/208/24
f 78/214/20 91/233/20 89/231/20 74/206/20
f 65/188/18 86/228/18 88/230/18 71/199/18
f 108/257/23 110/260/23 87/229/23 70/197/23
f 59/172/18 82/221/18 86/228/18 65/188/18
f 70/197/20 87/229/20 85/227/20 67/192/20
f 67/192/20 85/227/20 81/219/20 57/166/20
f 63/182/22 83/223/22 84/226/22 61/178/22
f 79/216/18 92/234/18 83/224/18 63/183/18
f 57/167/21 81/220/21 82/222/21 59/173/21
f 84/225/20 96/241/20 103/249/20 91/233/20
f 109/259/24 111/261/24 102/248/24 90/232/24
f 110/260/23 112/262/23 99/245/23 87/229/23
f 82/221/18 94/237/18 98/244/18 86/228/18
f 85/227/20 97/243/20 93/235/20 81/219/20
f 83/223/22 95/239/22 96/242/22 84/226/22
f 92/234/18 104/250/18 95/240/18 83/224/18
f 81/220/21 93/236/21 94/238/21 82/222/21
f 89/231/25 101/247/25 112/262/25 110/260/25
f 88/230/26 100/246/26 111/261/26 109/259/26
f 74/206/25 89/231/25 110/260/25 108/257/25
f 71/199/26 88/230/26 109/259/26 105/251/26
f 100/246/26 69/196/26 107/255/26 111/261/26
f 71/200/19 105/252/19 108/258/19 70/198/19
f 73/204/17 107/256/17 106/253/17 76/209/17
f 101/247/25 76/210/25 106/254/25 112/262/25
f 137/312/20 114/265/20 116/271/20 138/314/20
f 144/322/21 131/303/21 120/282/21 139/316/21
f 139/315/18 120/283/18 118/276/18 140/318/18
f 141/319/22 128/299/22 114/266/22 137/311/22
f 134/307/19 119/279/19 117/275/19 132/304/19
f 126/295/17 116/272/17 114/267/17 128/298/17
f 127/297/22 129/300/22 121/285/22 113/264/22
f 119/280/18 123/289/18 124/292/18 117/274/18
f 134/306/21 133/305/21 123/290/21 119/281/21
f 113/263/20 121/286/20 122/288/20 115/268/20
f 115/269/21 122/287/21 130/301/21 125/293/21
f 132/304/22 136/310/22 129/300/22 127/297/22
f 131/302/17 126/295/17 128/298/17 135/309/17
f 115/270/19 125/294/19 127/297/19 113/264/19
f 143/321/22 135/308/22 128/299/22 141/319/22
f 138/313/21 116/273/21 126/296/21 142/320/21
f 140/317/22 118/277/22 135/308/22 143/321/22
f 120/284/17 131/302/17 135/309/17 118/278/17
f 117/275/22 124/291/22 136/310/22 132/304/22
f 125/293/21 130/301/21 133/305/21 134/306/21
f 125/294/19 134/307/19 132/304/19 127/297/19
f 142/320/21 126/296/21 131/303/21 144/322/21
f 124/291/22 140/317/22 143/321/22 136/310/22
f 122/287/21 138/313/21 142/320/21 130/301/21
f 129/300/22 141/319/22 137/311/22 121/285/22
f 123/289/18 139/315/18 140/318/18 124/292/18
f 133/305/21 144/322/21 139/316/21 123/290/21
f 121/286/20 137/312/20 138/314/20 122/288/20
f 145/323/21 146/326/21 148/332/21 147/329/21
f 147/330/18 148/333/18 152/344/18 151/341/18
f 151/342/22 152/345/22 150/338/22 149/335/22
f 149/336/20 150/339/20 146/327/20 145/324/20
f 147/331/19 151/343/19 149/337/19 145/325/19
f 152/346/17 148/334/17 146/328/17 150/340/17
f 153/347/21 154/350/21 156/356/21 155/353/21
f 155/354/18 156/357/18 160/368/18 159/365/18
f 159/366/22 160/369/22 158/362/22 157/359/22
f 157/360/20 158/363/20 154/351/20 153/348/20
f 155/355/19 159/367/19 157/361/19 153/349/19
f 160/370/17 156/358/17 154/352/17 158/364/17
f 161/371/21 162/374/21 164/380/21 163/377/21
f 163/378/18 164/381/18 168/392/18 167/389/18
f 167/390/22 168/393/22 166/386/22 165/383/22
f 165/384/20 166/387/20 162/375/20 161/372/20
f 163/379/19 167/391/19 165/385/19 161/373/19
f 168/394/17 164/382/17 162/376/17 166/388/17
f 169/395/17 170/398/17 172/404/17 171/401/17
f 171/402/18 172/405/18 176/416/18 175/413/18
f 175/414/19 176/417/19 174/410/19 173/407/19
f 173/408/20 174/411/20 170/399/20 169/396/20
f 171/403/21 175/415/21 173/409/21 169/397/21
f 176/418/22 172/406/22 170/400/22 174/412/22
